# xmcd
# 
# Track frame offsets:
#     150
#     24514
#     40837
# 
# Disc length: 759
# 
# Revision: 1
# Processed by: cddbd v1.5.2PL0 Copyright (c) Steve Scherf et al.
# Submitted via: BonkEnc v1.0.15
# 
DISCID=1a02f503
DTITLE=ROSSO - 1000のタンバリン/アウトサイダー Disk2
DYEAR=2004
DGENRE=Rock
TTITLE0=アウトサイダー
TTITLE1=COCO
TTITLE2=サキソフォン・ベイビー
EXTD=YEAR: 2004
EXTT0=
EXTT1=
EXTT2=
PLAYORDER=
